<?xml version="1.0" standalone="no"?><!DOCTYPE svg PUBLIC "-//W3C//DTD SVG 1.1//EN" "http://www.w3.org/Graphics/SVG/1.1/DTD/svg11.dtd"><svg t="1592186568800" class="icon" viewBox="0 0 1025 1024" version="1.1" xmlns="http://www.w3.org/2000/svg" p-id="3489" xmlns:xlink="http://www.w3.org/1999/xlink" width="200.1953125" height="200"><defs><style type="text/css"></style></defs><path d="M1016.1904 93.352c-7.7152-8.776-19.96-12.7344-31.7152-9.552L23.1664 343.5216c-11.3072 3.0608-19.8992 12.0816-22.4288 23.5104-2.5104 11.4288 1.4896 23.2256 10.4704 30.776L239.008 589.1184l104.5536 290.456c4.1232 11.3872 14.552 19.4704 26.4704 20.5712l3.1232 0.1632c10.96 0 21.2448-5.8784 26.8576-15.3472l63.0016-106.2064 181.2496 154.984c5.632 4.8576 12.8976 7.552 20.368 7.552 2.6944 0 5.1424-0.2864 7.3056-0.8576 9.7152-2.3264 17.8368-9.224 21.7152-18.5312l327.968-795.856C1026.192 115.1072 1024.0688 102.2496 1016.1904 93.352zM617.0784 426.992l-119.6976 158.7792c-5.0608 6.6944-7.2048 14.9392-6.0416 23.2256 1.1632 8.2864 5.4896 15.6336 12.2048 20.736 13.3264 10 33.8176 7.1024 43.8784-6.2048L745.8992 360.256c8.7344-11.6736 8.368-27.6336-0.8576-38.736-9.0608-11.0208-25.3072-14.5312-37.96-8.2864l-439.44 214.6576c-0.8368 0.408-1.632 0.8576-2.4288 1.3472L97.4736 388.3792l841.9792-227.4336L652.1408 858.024l-176.6976-151.1472c-5.6736-4.816-12.9184-7.5104-20.3888-7.5104-1.6128 0-3.2448 0.1632-5.1424 0.4496-9.1424 1.5104-17.1024 6.9792-21.7968 14.8976l-48.0832 81.0224-77.4304-215.1488L617.0784 426.992z" p-id="3490" fill="#adadad"></path></svg>