<?xml version="1.0" standalone="no"?><!DOCTYPE svg PUBLIC "-//W3C//DTD SVG 1.1//EN" "http://www.w3.org/Graphics/SVG/1.1/DTD/svg11.dtd"><svg t="1594958593700" class="icon" viewBox="0 0 1024 1024" version="1.1" xmlns="http://www.w3.org/2000/svg" p-id="3215" id="mx_n_1594958593701" xmlns:xlink="http://www.w3.org/1999/xlink" width="200" height="200"><defs><style type="text/css"></style></defs><path d="M416 512c-17.6 0-32 14.4-32 32s14.4 32 32 32 32-14.4 32-32-14.4-32-32-32z m192 64c17.6 0 32-14.4 32-32s-14.4-32-32-32-32 14.4-32 32 14.4 32 32 32zM440 416h-16c0 22.4-17.6 40-40 40h-32v16h32c30.4 0 56-25.6 56-56zM640 472h32v-16h-32c-22.4 0-40-17.6-40-40h-16c0 30.4 25.6 56 56 56z m-187.2 224c36.8-20.8 83.2-20.8 120 0l8-14.4c-41.6-24-94.4-24-136 0l8 14.4z m-126.4-97.6l-11.2-11.2-32 32 11.2 11.2 32-32z m48 0l-11.2-11.2-32 32 11.2 11.2 32-32z m380.8 19.2l-32-32-11.2 11.2 32 32 11.2-11.2z m-59.2 12.8l11.2-11.2-32-32-11.2 11.2 32 32zM104 224h16v-40H160v-16H120V128h-16v40H64v16h40V224z m832 612.8c14.4-9.6 24-20.8 24-33.6 0-27.2-33.6-46.4-104-64l49.6-379.2c1.6-17.6-3.2-36.8-16-49.6-4.8-4.8-9.6-8-14.4-11.2l3.2-38.4c1.6-12.8-3.2-27.2-12.8-36.8s-22.4-16-35.2-16H491.2v-32c0-27.2-20.8-48-48-48H288c-27.2 0-48 20.8-48 48v32h-22.4c-14.4 0-27.2 6.4-35.2 16-9.6 9.6-12.8 24-11.2 38.4l3.2 27.2c-16 1.6-28.8 9.6-40 20.8-12.8 14.4-17.6 32-16 49.6l49.6 379.2c-68.8 16-104 38.4-104 65.6 0 19.2 14.4 48 139.2 70.4 81.6 14.4 192 22.4 308.8 22.4 14.4 0 300.8 0 408-49.6v11.2H896v16h24V896h16v-24H960v-16h-24v-19.2z m-729.6-592c3.2-3.2 8-4.8 11.2-4.8H272v-64c0-9.6 6.4-16 16-16h155.2c9.6 0 16 6.4 16 16v64h371.2c4.8 0 8 1.6 11.2 4.8s4.8 8 4.8 12.8l-3.2 30.4H206.4l-3.2-30.4c-1.6-4.8 0-9.6 3.2-12.8z m-56 112c-1.6-9.6 1.6-17.6 8-25.6 6.4-6.4 14.4-11.2 24-11.2h659.2c9.6 0 17.6 3.2 24 11.2 6.4 6.4 9.6 16 8 25.6l-52.8 400c-1.6 16-16 28.8-32 28.8H233.6c-16 0-30.4-12.8-32-28.8l-51.2-400zM512 864c-264 0-409.6-38.4-416-59.2 1.6-4.8 17.6-19.2 76.8-33.6 8 25.6 32 44.8 60.8 44.8h555.2c28.8 0 52.8-19.2 60.8-44.8 68.8 16 76.8 32 76.8 32-4.8 20.8-150.4 60.8-414.4 60.8z" p-id="3216" fill="#adadad"></path></svg>